<svg xmlns="http://www.w3.org/2000/svg" version="1.1" xmlns:xlink="http://www.w3.org/1999/xlink" viewBox="0 0 200 200"><rect width="200" height="200" fill="url('#gradient')"></rect><defs><linearGradient id="gradient" gradientTransform="rotate(45 0.5 0.5)"><stop offset="0%" stop-color="#7072f3"></stop><stop offset="100%" stop-color="#bfb7e1"></stop></linearGradient></defs><g><g fill="#fdfded" transform="matrix(1.9011861784424962,0,0,1.9011861784424962,7.960490979319573,111.23909525514694)" stroke="#2d9f19" stroke-width="0.2"><path d="M12.95-14.22L12.95 0L9.54 0L4.50-8.85L4.50 0L1.07 0L1.07-14.22L4.50-14.22L9.53-5.37L9.53-14.22L12.95-14.22ZM27.18-7.47L27.18-6.82Q27.18-4.84 26.52-3.37Q25.87-1.90 24.72-1.02L24.72-1.02L27.01 0.80L24.89 2.60L21.84 0.14Q21.41 0.20 20.98 0.20L20.98 0.20Q19.16 0.20 17.75-0.64Q16.35-1.48 15.56-3.05Q14.78-4.61 14.75-6.64L14.75-6.64L14.75-7.39Q14.75-9.49 15.51-11.08Q16.28-12.68 17.70-13.54Q19.12-14.41 20.96-14.41L20.96-14.41Q22.76-14.41 24.18-13.55Q25.60-12.70 26.38-11.11Q27.17-9.52 27.18-7.47L27.18-7.47ZM23.69-6.76L23.69-7.41Q23.69-9.53 22.98-10.63Q22.28-11.73 20.96-11.73L20.96-11.73Q19.60-11.73 18.92-10.64Q18.23-9.56 18.22-7.47L18.22-7.47L18.22-6.82Q18.22-4.72 18.92-3.60Q19.61-2.48 20.98-2.48L20.98-2.48Q22.29-2.48 22.98-3.58Q23.68-4.69 23.69-6.76L23.69-6.76ZM37.83 0L37.00-2.66L32.30-2.66L31.48 0L27.82 0L33.04-14.22L36.26-14.22L41.51 0L37.83 0ZM34.65-10.23L33.13-5.30L36.18-5.30L34.65-10.23ZM58.11-14.22L58.11-11.57L53.84-11.57L53.84 0L50.41 0L50.41-11.57L46.22-11.57L46.22-14.22L58.11-14.22ZM68.37-8.57L68.37-6.03L62.98-6.03L62.98-2.64L69.35-2.64L69.35 0L59.55 0L59.55-14.22L69.37-14.22L69.37-11.57L62.98-11.57L62.98-8.57L68.37-8.57ZM78.84-4.81L82.25-4.81Q82.18-3.33 81.45-2.19Q80.71-1.05 79.39-0.43Q78.07 0.20 76.37 0.20L76.37 0.20Q73.56 0.20 71.95-1.63Q70.34-3.46 70.34-6.79L70.34-6.79L70.34-7.49Q70.34-9.58 71.07-11.15Q71.80-12.71 73.16-13.57Q74.53-14.42 76.33-14.42L76.33-14.42Q78.92-14.42 80.49-13.06Q82.06-11.70 82.28-9.31L82.28-9.31L78.86-9.31Q78.82-10.61 78.20-11.17Q77.59-11.74 76.33-11.74L76.33-11.74Q75.05-11.74 74.45-10.78Q73.86-9.82 73.83-7.72L73.83-7.72L73.83-6.72Q73.83-4.44 74.40-3.47Q74.97-2.49 76.37-2.49L76.37-2.49Q77.55-2.49 78.17-3.05Q78.80-3.60 78.84-4.81L78.84-4.81ZM95.75-14.22L95.75 0L92.34 0L92.34-5.94L87.29-5.94L87.29 0L83.87 0L83.87-14.22L87.29-14.22L87.29-8.57L92.34-8.57L92.34-14.22L95.75-14.22Z"></path></g></g></svg>